<svg xmlns="http://www.w3.org/2000/svg" viewBox="0 0 512 640" x="0px" y="0px">
<title>Laughing Book</title>
<path id="laugh-book-outline" d="M446.8,0H100.42A45.28,45.28,0,0,0,55.2,45.22V464.78A45.28,45.28,0,0,0,100.43,510H446.8a10,10,0,0,0,10-10V10A10,10,0,0,0,446.8,0ZM412,439.55h24.8V490H412Zm24.8-20h-307V20h307ZM75.2,45.22A25.25,25.25,0,0,1,100.42,20h9.38V419.55h-9.37c-.71,0-1.4,0-2.1.06l-.61,0c-.51,0-1,.07-1.54.12l-.59.05c-.69.08-1.37.16-2,.26h0c-.67.1-1.33.22-2,.35l-.57.12-1.48.35-.55.14c-.65.17-1.3.35-1.94.55h0c-.63.2-1.24.41-1.86.63l-.53.2-1.4.55-.51.21c-.61.27-1.22.54-1.81.82l-.07,0c-.57.28-1.13.57-1.69.87l-.51.27-1.28.74-.47.29c-.55.33-1.1.68-1.63,1Zm0,419.56a25.26,25.26,0,0,1,25.23-25.23H392v15.23H119.8a10,10,0,1,0,0,20H392V490H100.43A25.25,25.25,0,0,1,75.2,464.78Z"/>
<path id="laugh-mouth" d="M325.58,231.18H235.8a10,10,0,0,0-10,10,54.89,54.89,0,0,0,109.78,0A10,10,0,0,0,325.58,231.18Z">
  <animate id="laugh" attributeName="d"  dur="3s" to="M314.23,239.54a10,10,0,0,0-9.56,7.05c-.69,1.82-5.77,13.41-24,13.41s-23.3-11.59-24-13.41a10,10,0,1,0-19,6.13h0c.36,1.11,9.14,27.27,43,27.27s42.66-26.16,43-27.27h0a9.82,9.82,0,0,0,.53-3.18A10,10,0,0,0,314.23,239.54Z" />
</path>
<path id="laugh-right-eye" d="M349.07,182.77a27.58,27.58,0,0,0-27.55,27.55,10,10,0,0,0,20,0,7.55,7.55,0,0,1,15.1,0,10,10,0,1,0,20,0A27.58,27.58,0,0,0,349.07,182.77Z"/>
<path id="laugh-left-eye" d="M239.85,210.32a27.55,27.55,0,0,0-55.1,0,10,10,0,0,0,20,0,7.55,7.55,0,0,1,15.1,0,10,10,0,0,0,20,0Z"/>
</svg>