<svg xmlns="http://www.w3.org/2000/svg" viewBox="0 0 512 640" x="0px" y="0px">
<title>Kissing Book</title>
<path id='kiss-book-outline' d="M446.8,0H100.42A45.28,45.28,0,0,0,55.2,45.22V464.78A45.28,45.28,0,0,0,100.43,510H446.8a10,10,0,0,0,10-10V10A10,10,0,0,0,446.8,0ZM412,439.55h24.8V490H412Zm24.8-20h-307V20h307ZM75.2,45.22A25.25,25.25,0,0,1,100.42,20h9.38V419.55h-9.37c-.71,0-1.4,0-2.1.06l-.61,0c-.51,0-1,.07-1.54.12l-.59.05c-.69.08-1.37.16-2,.26h0c-.67.1-1.33.22-2,.35l-.57.12-1.48.35-.55.14c-.65.17-1.3.35-1.94.55h0c-.63.2-1.24.41-1.86.63l-.53.2-1.4.55-.51.21c-.61.27-1.22.54-1.81.82l-.07,0c-.57.28-1.13.57-1.69.87l-.51.27-1.28.74-.47.29c-.55.33-1.1.68-1.63,1Zm0,419.56a25.26,25.26,0,0,1,25.23-25.23H392v15.23H119.8a10,10,0,1,0,0,20H392V490H100.43A25.25,25.25,0,0,1,75.2,464.78Z"/>
<path id='kiss-left-eye' d="M229.85,200.77a10,10,0,0,0-10,10,7.55,7.55,0,1,1-15.1,0,10,10,0,1,0-20,0,27.55,27.55,0,1,0,55.1,0A10,10,0,0,0,229.85,200.77Z"/>
<path id='kiss-right-eye' d="M366.63,200.77a10,10,0,0,0-10,10,7.56,7.56,0,0,1-15.11,0,10,10,0,1,0-20,0,27.56,27.56,0,0,0,55.11,0A10,10,0,0,0,366.63,200.77Z"/>
<path id='kiss-heart' d="M228.64,258.3A22.51,22.51,0,0,0,211,253.74a25.42,25.42,0,0,0-10.52,4.59A25.36,25.36,0,0,0,190,253.74a22.46,22.46,0,0,0-17.61,4.56c-7.29,5.45-11.19,13.17-11,21.73.33,14.48,11.81,29.85,33.22,44.47l.36.25a10,10,0,0,0,5.49,1.68h.06a10,10,0,0,0,6-2c21.33-14.59,32.78-29.93,33.11-44.39C239.83,271.47,235.92,263.75,228.64,258.3Z">
  <animate id="kiss" attributeName="fill" dur="3s" from="black" to="#ed179e" values="black; #b817ed; #75bb0e; #17d0ed; #f19e05; #ed179e" fill="freeze" />
</path>
<path id='lips' d="M274.46,262.69c2.34-1.93,6.69-2.62,11.09-1.77a10,10,0,0,0,3.81-19.63c-10.32-2-20.65.22-27.62,6a24.66,24.66,0,0,0-3.52,34.26,24.66,24.66,0,0,0,3.52,34.26c5.28,4.36,12.5,6.69,20.18,6.69a38.58,38.58,0,0,0,7.44-.72,10,10,0,1,0-3.81-19.63c-4.4.85-8.75.16-11.09-1.77a4.15,4.15,0,0,1-1.58-3.55c0-4.76,7.09-5.28,10.14-5.28a10,10,0,0,0,0-20c-3,0-10.14-.51-10.14-5.27A4.15,4.15,0,0,1,274.46,262.69Z"/>
</svg>