<svg xmlns="http://www.w3.org/2000/svg" viewBox="0 0 64 64" x="0px" y="0px">
<title>Bookshelf, plant, book</title>
<g>
<rect fill="purple" x="42" y="44" width="2" height="2"/>
<path d="M61,16H56V15a1,1,0,0,0-1-1H49a1,1,0,0,0-1,1V40H44V36h1a1,1,0,0,0,1-1V23a1,1,0,0,0-1-1H44V17a1,1,0,0,0-1-1H24a3.99,3.99,0,0,0-1.313,7.761,3.965,3.965,0,0,0,.7,5.239,3.965,3.965,0,0,0-.7,5.239A3.948,3.948,0,0,0,20.556,40H15.105l.8-8H17a1,1,0,0,0,1-1V27a1,1,0,0,0-1-1H11V24h1a5.006,5.006,0,0,0,5-5,1,1,0,0,0-1-1H14a4.979,4.979,0,0,0-3.978,2c-.008,0-.014,0-.022,0s-.014,0-.022,0A4.979,4.979,0,0,0,6,18H4a1,1,0,0,0-1,1,5.006,5.006,0,0,0,5,5H9v2H3a1,1,0,0,0-1,1v4a1,1,0,0,0,1,1H4.1l.8,8H3a1,1,0,0,0-1,1v4a1,1,0,0,0,1,1H5.22l.81,3.242A1,1,0,0,0,7,50h6a1,1,0,0,0,.97-.758L14.78,46H40V44H4V42H60v2H46v2h3.22l.81,3.242A1,1,0,0,0,51,50h6a1,1,0,0,0,.97-.758L58.78,46H61a1,1,0,0,0,1-1V17A1,1,0,0,0,61,16ZM14,20h.829A3.006,3.006,0,0,1,12,22h-.829A3.006,3.006,0,0,1,14,20ZM8,22a3.006,3.006,0,0,1-2.829-2H6a3.006,3.006,0,0,1,2.829,2Zm4.719,24-.5,2H7.781l-.5-2Zm43.5,2H51.781l-.5-2h5.438ZM50,20h4v2H50Zm6,3V22h4v2H56Zm4-5v2H56V18Zm-6-2v2H50V16ZM22,20a2,2,0,0,1,2-2H42v4H24A2,2,0,0,1,22,20Zm2,6a2,2,0,0,1,2-2H44v4H26A2,2,0,0,1,24,26Zm20,4v4H26a2,2,0,0,1,0-4ZM4,28H16v2H4ZM6.905,40l-.8-8H13.9l-.8,8ZM24,40a2,2,0,0,1,0-4H42v4ZM50,24h4V40H50Zm6,16V26h4V40Z"/>
</g>
</svg>