<svg xmlns="http://www.w3.org/2000/svg" xmlns:xlink="http://www.w3.org/1999/xlink" version="1.1" x="0px" y="0px" viewBox="0 0 1000 1000" enable-background="new 0 0 1000 1000" xml:space="preserve">
<g>
<path fill="#BF3FBF" d="M608.3,278.8c-22.6,0-46.4,7.9-69.2,23c-22.2-15-45.6-22.9-68.3-22.9c-29.6,0-57.1,13.6-75.4,37.3   c-20.1,26.1-26.7,60.2-17.9,93.5c18.8,71.6,92.7,127.5,135.1,154.4c7.9,5,17,7.7,26.4,7.7c9.3,0,18.4-2.6,26.3-7.6   c43-27.3,117.9-83.8,135.3-154.7c8.3-33.8,1.3-69.2-18.8-94.8C663.7,291.5,637.6,278.8,608.3,278.8z"/>
<path d="M775.2,824.1H764V696.7h10.3c9,0,16.3-7.3,16.3-16.3V159.7c0-9-7.3-16.3-16.3-16.3H303.9c-52.6,0-95.4,42.8-95.4,95.4   v520.8v1.6c0,52.6,42.8,95.4,95.4,95.4h471.3c9,0,16.3-7.3,16.3-16.3C791.5,831.3,784.2,824.1,775.2,824.1z M288.5,177.9v487.6   c-18,2.9-34.3,10.9-47.5,22.5V238.8C241.1,209.4,261.3,184.7,288.5,177.9z M731.5,824.1H303.9c-34.7,0-62.9-28.2-62.9-62.9v-1.6   c0-34.7,28.2-62.9,62.9-62.9h427.5L731.5,824.1L731.5,824.1z M758,664.2H321.1V175.9H758V664.2z"/>
</g></svg>