<svg xmlns="http://www.w3.org/2000/svg" viewBox="0 0 512 640" x="0px" y="0px">
<title>Naughty-Emoji-Emotion-Face-Expression-Feeling_1</title>
<path id="book-outline" d="M446.8,0H100.42A45.28,45.28,0,0,0,55.2,45.22V464.78A45.28,45.28,0,0,0,100.43,510H446.8a10,10,0,0,0,10-10V10A10,10,0,0,0,446.8,0ZM412,439.55h24.8V490H412Zm24.8-20h-307V20h307ZM75.2,45.22A25.25,25.25,0,0,1,100.42,20h9.38V419.55h-9.37c-.71,0-1.4,0-2.1.06l-.61,0c-.51,0-1,.07-1.54.12l-.59.05c-.69.08-1.37.16-2,.26h0c-.67.1-1.33.22-2,.35l-.57.12-1.48.35-.55.14c-.65.17-1.3.35-1.94.55h0c-.63.2-1.24.41-1.86.63l-.53.2-1.4.55-.51.21c-.61.27-1.22.54-1.81.82l-.07,0c-.57.28-1.13.57-1.69.87l-.51.27-1.28.74-.47.29c-.55.33-1.1.68-1.63,1Zm0,419.56a25.26,25.26,0,0,1,25.23-25.23H392v15.23H119.8a10,10,0,1,0,0,20H392V490H100.43A25.25,25.25,0,0,1,75.2,464.78Z"/>
<circle id="left-eye" cx="205.62" cy="212.38" r="19.29"/>
<circle id="right-eye" cx="355.75" cy="212.38" r="19.29">
  <animate attributeName="cx" dur="2s" from="355.75" to="327" begin="3s" values="355.75; 327; 348; 348; 356" keyTimes="0; 0.45; 0.7; 0.85; 1" fill="freeze" />
  <animate attributeName="cy" dur="2s" from="212.38" to="189" begin="3s" values="212.38; 189; 180; 180; 190" keyTimes="0; 0.45; 0.7; 0.85; 1" fill="freeze" />
</circle>
<path id="mouth-and-tongue" d="M328.41,245.14a10,10,0,0,0-9.31,6.33,23.06,23.06,0,0,0-38.68,17v5.84c-12.65-.05-22.81-3.7-30.21-10.86a32.92,32.92,0,0,1-7.6-11,10,10,0,1,0-18.85,6.7c1.93,5.21,14.8,35.13,56.93,35.13s55-29.92,56.92-35.13a10,10,0,0,0-9.2-14Z"/>
</svg>