<svg xmlns="http://www.w3.org/2000/svg" xmlns:xlink="http://www.w3.org/1999/xlink" xmlns:sketch="http://www.bohemiancoding.com/sketch/ns" viewBox="0 0 30 37.5" version="1.1" x="0px" y="0px">
<title>nature_015-flower-tree-flowerpot-pot-plant-garden</title>
<desc>Created with Sketch.</desc>
<g stroke="none" stroke-width="1" fill="none" fill-rule="evenodd" sketch:type="MSPage">
<g sketch:type="MSArtboardGroup" transform="translate(-225.000000, -90.000000)" fill="#000000">
<path d="M241,110.991394 L246.206643,110.984989 C246.644802,110.98445 246.901053,111.326441 246.77788,111.752711 L244.475597,119.720283 C244.430958,119.874766 244.259569,120 244.098924,120 L236.901076,120 C236.737684,120 236.568466,119.872773 236.524546,119.720779 L234.226346,111.767335 C234.10389,111.343548 234.365754,110.999556 234.797977,110.999024 L240,110.992624 L240,105.056187 C238.801723,106.222789 236.902726,106.393005 235.503825,105.376644 C233.939998,104.240458 233.593327,102.051664 234.729514,100.487837 C234.766906,100.436371 234.805438,100.386224 234.84505,100.337405 C234.784308,100.321192 234.723659,100.303271 234.663158,100.283613 C232.824769,99.686284 231.818691,97.7117446 232.41602,95.8733555 C233.013348,94.0349665 234.987888,93.0288884 236.826277,93.6262172 C236.886778,93.6458753 236.946378,93.6670249 237.005049,93.6896122 L237.005049,93.6896122 C237.001697,93.6268331 237,93.5636147 237,93.5 C237,91.5670034 238.567003,90 240.5,90 C242.432997,90 244,91.5670034 244,93.5 C244,93.5636147 243.998303,93.6268331 243.994951,93.6896122 C244.053622,93.6670249 244.113222,93.6458753 244.173723,93.6262172 C246.012112,93.0288884 247.986652,94.0349665 248.58398,95.8733555 C249.181309,97.7117446 248.175231,99.686284 246.336842,100.283613 C246.276341,100.303271 246.215692,100.321192 246.15495,100.337405 C246.194562,100.386224 246.233094,100.436371 246.270486,100.487837 C247.406673,102.051664 247.060002,104.240458 245.496175,105.376644 C244.097274,106.393005 242.198277,106.222789 241,105.056187 L241,110.991394 Z M245.665513,112 L235.334487,112 L235.623444,113 L245.376556,113 L245.665513,112 Z M243.642817,119 L237.357183,119 L235.912401,114 L245.087599,114 L243.642817,119 Z M238,93.5 C238,92.1192881 239.119288,91 240.5,91 C241.880712,91 243,92.1192881 243,93.5 C243,93.8608788 242.923799,94.2100571 242.778392,94.5308317 C242.553972,95.0259137 243.16934,95.4730049 243.570842,95.10658 C243.830983,94.8691653 244.139524,94.6887914 244.48274,94.5772737 C245.795875,94.1506103 247.20626,94.8692375 247.632924,96.1823725 C248.059587,97.4955076 247.34096,98.9058929 246.027825,99.3325563 C245.684609,99.444074 245.328973,99.4795042 244.978965,99.4403391 C244.438765,99.3798917 244.203715,100.1033 244.676276,100.371919 C244.982459,100.545964 245.24935,100.783665 245.461469,101.075622 C246.273031,102.192641 246.025409,103.756065 244.908389,104.567627 C243.79137,105.37919 242.227946,105.131567 241.416384,104.014548 C241.204265,103.722591 241.060671,103.39531 240.989761,103.05033 C240.880318,102.517889 240.119682,102.517889 240.010239,103.05033 C239.939329,103.39531 239.795735,103.722591 239.583616,104.014548 C238.772054,105.131567 237.20863,105.37919 236.091611,104.567627 C234.974591,103.756065 234.726969,102.192641 235.538531,101.075622 C235.75065,100.783665 236.017541,100.545964 236.323724,100.371919 C236.796285,100.1033 236.561235,99.3798917 236.021035,99.4403391 C235.671027,99.4795042 235.315391,99.444074 234.972175,99.3325563 C233.65904,98.9058929 232.940413,97.4955076 233.367076,96.1823725 C233.79374,94.8692375 235.204125,94.1506103 236.51726,94.5772737 C236.860476,94.6887914 237.169017,94.8691653 237.429158,95.10658 C237.83066,95.4730049 238.446028,95.0259137 238.221608,94.5308317 C238.076201,94.2100571 238,93.8608788 238,93.5 Z M240.5,101 C241.880712,101 243,99.8807119 243,98.5 C243,97.1192881 241.880712,96 240.5,96 C239.119288,96 238,97.1192881 238,98.5 C238,99.8807119 239.119288,101 240.5,101 Z M240.5,100 C241.328427,100 242,99.3284271 242,98.5 C242,97.6715729 241.328427,97 240.5,97 C239.671573,97 239,97.6715729 239,98.5 C239,99.3284271 239.671573,100 240.5,100 Z" sketch:type="MSShapeGroup"/>
</g>
</g>
</svg>